<?xml version="1.0" encoding="UTF-8" standalone="no"?><!DOCTYPE svg PUBLIC "-//W3C//DTD SVG 1.1//EN" "http://www.w3.org/Graphics/SVG/1.1/DTD/svg11.dtd"><svg width="100%" height="100%" viewBox="0 0 596 842" version="1.1" xmlns="http://www.w3.org/2000/svg" xmlns:xlink="http://www.w3.org/1999/xlink" xml:space="preserve" xmlns:serif="http://www.serif.com/" style="fill-rule:evenodd;clip-rule:evenodd;stroke-linejoin:round;stroke-miterlimit:2;"><rect x="0" y="0" width="595.276" height="841.89"/><text x="17.757px" y="45.62px" style="font-family:'Montserrat-Black', 'Montserrat';font-weight:900;font-size:36px;fill:#fff;">Min<tspan x="89.469px " y="45.62px ">o</tspan>r St<tspan x="180.945px " y="45.62px ">y</tspan>le Guide ::</text><text x="407.819px" y="45.62px" style="font-family:'Montserrat-SemiBold', 'Montserrat';font-weight:600;font-size:36px;fill:url(#_Linear1);">C<tspan x="433.271px " y="45.62px ">o</tspan>lour</text><text x="17.757px" y="70.663px" style="font-family:'Montserrat-Bold', 'Montserrat';font-weight:700;font-size:24px;fill:#fff;fill-opacity:0.5;">Z<tspan x="33.693px 48.837px 58.989px " y="70.663px 70.663px 70.663px ">ett</tspan>ahash.<tspan x="151.077px 166.797px 176.925px " y="70.663px 70.663px 70.663px ">org</tspan></text><text x="20.914px" y="516.001px" style="font-family:'Montserrat-Bold', 'Montserrat';font-weight:700;font-size:24px;fill:#fff;">Abstr<tspan x="89.218px 104.17px 118.546px " y="516.001px 516.001px 516.001px ">act</tspan></text><g transform="matrix(0.24,0,0,0.24,3.15716,520.939)"><text x="73.987px" y="103.068px" style="font-family:'Montserrat-Regular', 'Montserrat';font-size:58.333px;fill:#fff;">P<tspan x="114.996px " y="103.068px ">a</tspan>let<tspan x="223.204px 245.779px " y="103.068px 103.068px ">te</tspan> utilises se<tspan x="577.054px 607.796px 643.029px 665.896px " y="103.068px 103.068px 103.068px 103.068px ">vera</tspan>l sha<tspan x="833.837px " y="103.068px ">d</tspan>es an<tspan x="1026.45px " y="103.068px ">d</tspan> hues of our blue c<tspan x="1602.55px " y="103.068px ">o</tspan>lour<tspan x="1753.81px " y="103.068px ">s</tspan> alignin<tspan x="1998.23px " y="103.068px ">g</tspan> with</text><text x="73.987px" y="186.401px" style="font-family:'Montserrat-Regular', 'Montserrat';font-size:58.333px;fill:#fff;">in<tspan x="129.287px " y="186.401px ">d</tspan>ustr<tspan x="284.571px " y="186.401px ">y</tspan> int<tspan x="409.229px 444.462px 467.387px 506.937px 529.571px " y="186.401px 186.401px 186.401px 186.401px 186.401px ">erpre</tspan>tations of t<tspan x="876.362px 911.596px 943.971px " y="186.401px 186.401px 186.401px ">ech</tspan> an<tspan x="1072.77px " y="186.401px ">d</tspan> deF<tspan x="1238.73px " y="186.401px ">i</tspan>.</text><text x="73.987px" y="319.735px" style="font-family:'Montserrat-Regular', 'Montserrat';font-size:58.333px;fill:#fff;">Link<tspan x="198.121px 213.812px 253.421px " y="319.735px 319.735px 319.735px ">ing</tspan> t<tspan x="331.296px " y="319.735px ">o</tspan> th<tspan x="446.446px " y="319.735px ">e</tspan> c<tspan x="529.279px 565.854px 588.487px " y="319.735px 319.735px 319.735px ">ore</tspan> bit<tspan x="716.821px 749.137px " y="319.735px 319.735px ">co</tspan>in r<tspan x="878.812px " y="319.735px ">o</tspan>otin<tspan x="1030.95px " y="319.735px ">g</tspan> of th<tspan x="1221.17px " y="319.735px ">e</tspan> c<tspan x="1304px " y="319.735px ">o</tspan>mp<tspan x="1441.85px 1476.26px 1515.17px 1544.8px " y="319.735px 319.735px 319.735px 319.735px ">any,</tspan> or<tspan x="1631.9px 1666.31px 1705.92px " y="319.735px 319.735px 319.735px ">ang</tspan>e is intr<tspan x="1957.45px " y="319.735px ">o</tspan>duc<tspan x="2105.15px " y="319.735px ">e</tspan>d in</text><text x="73.987px" y="403.068px" style="font-family:'Montserrat-Regular', 'Montserrat';font-size:58.333px;fill:#fff;">f<tspan x="93.179px " y="403.068px ">a</tspan>miliar bit<tspan x="387.471px 419.787px " y="403.068px 403.068px ">co</tspan>in-sph<tspan x="641.512px 676.746px 699.379px " y="403.068px 403.068px 403.068px ">ere</tspan> sha<tspan x="852.446px " y="403.068px ">d</tspan>es an<tspan x="1045.06px " y="403.068px ">d</tspan> gr<tspan x="1162.78px 1197.31px " y="403.068px 403.068px ">ad</tspan>ients.</text></g><text x="17.757px" y="134.042px" style="font-family:'Montserrat-Black', 'Montserrat';font-weight:900;font-size:16px;fill:#fff;">C<tspan x="29.421px 42.989px 52.701px " y="134.042px 134.042px 134.042px ">OLO</tspan>UR SW<tspan x="124.701px 137.037px 147.341px " y="134.042px 134.042px 134.042px ">ATC</tspan>HES</text><g><text x="17.757px" y="180.706px" style="font-family:'Montserrat-SemiBold', 'Montserrat';font-weight:600;font-size:14px;fill:#fff;">BL<tspan x="36.657px " y="180.706px ">U</tspan>ES</text><g><text x="56.196px" y="213.42px" style="font-family:'Montserrat-SemiBold', 'Montserrat';font-weight:600;font-size:14px;fill:#fff;">#0062FF</text><text x="56.196px" y="229.646px" style="font-family:'Montserrat-Regular', 'Montserrat';font-size:13px;fill:#808080;">P<tspan x="65.231px 70.34px " y="229.646px 229.646px ">ri</tspan>mar<tspan x="100.708px " y="229.646px ">y</tspan></text><path d="M46.522,211.697c-0,-5.277 -4.278,-9.555 -9.555,-9.555l-9.655,-0c-5.277,-0 -9.555,4.278 -9.555,9.555l-0,9.654c-0,5.278 4.278,9.556 9.555,9.556l9.655,-0c5.277,-0 9.555,-4.278 9.555,-9.556l-0,-9.654Z" style="fill:#0062ff;"/></g><g><text x="56.196px" y="257.623px" style="font-family:'Montserrat-SemiBold', 'Montserrat';font-weight:600;font-size:14px;fill:#fff;">#3<tspan x="74.158px 82.418px " y="257.623px 257.623px ">78</tspan>3FF</text><text x="56.196px" y="273.849px" style="font-family:'Montserrat-Regular', 'Montserrat';font-size:13px;fill:#808080;">Sec<tspan x="79.245px " y="273.849px ">o</tspan>ndar<tspan x="118.115px " y="273.849px ">y</tspan></text><path d="M46.522,255.901c-0,-5.278 -4.278,-9.556 -9.555,-9.556l-9.655,0c-5.277,0 -9.555,4.278 -9.555,9.556l-0,9.654c-0,5.277 4.278,9.555 9.555,9.555l9.655,0c5.277,0 9.555,-4.278 9.555,-9.555l-0,-9.654Z" style="fill:#3783ff;"/></g><g><text x="56.196px" y="301.827px" style="font-family:'Montserrat-SemiBold', 'Montserrat';font-weight:600;font-size:14px;fill:#fff;">#0000FF</text><text x="56.196px" y="318.053px" style="font-family:'Montserrat-Regular', 'Montserrat';font-size:13px;fill:#808080;">C<tspan x="65.244px " y="318.053px ">o</tspan>balt</text><path d="M46.522,300.104c-0,-5.277 -4.278,-9.555 -9.555,-9.555l-9.655,-0c-5.277,-0 -9.555,4.278 -9.555,9.555l-0,9.654c-0,5.278 4.278,9.556 9.555,9.556l9.655,-0c5.277,-0 9.555,-4.278 9.555,-9.556l-0,-9.654Z" style="fill:#00f;"/></g><g><text x="56.196px" y="346.03px" style="font-family:'Montserrat-SemiBold', 'Montserrat';font-weight:600;font-size:14px;fill:#fff;">#5404FF</text><text x="56.196px" y="362.256px" style="font-family:'Montserrat-Regular', 'Montserrat';font-size:13px;fill:#808080;">V<tspan x="65.036px " y="362.256px ">i</tspan>olet</text><path d="M46.522,344.308c-0,-5.278 -4.278,-9.556 -9.555,-9.556l-9.655,0c-5.277,0 -9.555,4.278 -9.555,9.556l-0,9.654c-0,5.277 4.278,9.555 9.555,9.555l9.655,0c5.277,0 9.555,-4.278 9.555,-9.555l-0,-9.654Z" style="fill:#5404ff;"/></g><g><text x="56.196px" y="390.234px" style="font-family:'Montserrat-SemiBold', 'Montserrat';font-weight:600;font-size:14px;fill:#fff;">#FF33<tspan x="100.072px " y="390.234px ">7</tspan>E</text><text x="56.196px" y="406.46px" style="font-family:'Montserrat-Regular', 'Montserrat';font-size:13px;fill:#808080;">P<tspan x="65.231px 70.34px " y="406.46px 406.46px ">ri</tspan>mar<tspan x="100.708px " y="406.46px ">y</tspan> highlight</text><path d="M46.522,388.511c-0,-5.277 -4.278,-9.555 -9.555,-9.555l-9.655,-0c-5.277,-0 -9.555,4.278 -9.555,9.555l-0,9.654c-0,5.278 4.278,9.556 9.555,9.556l9.655,-0c5.277,-0 9.555,-4.278 9.555,-9.556l-0,-9.654Z" style="fill:#ff337e;"/></g><g><text x="56.196px" y="434.437px" style="font-family:'Montserrat-SemiBold', 'Montserrat';font-weight:600;font-size:14px;fill:#fff;">C<tspan x="66.514px " y="434.437px ">1</tspan></text><text x="56.196px" y="450.663px" style="font-family:'Montserrat-Regular', 'Montserrat';font-size:13px;fill:#808080;">C<tspan x="65.244px " y="450.663px ">o</tspan>mmon gradient</text><path d="M46.522,432.715c-0,-5.278 -4.278,-9.556 -9.555,-9.556l-9.655,0c-5.277,0 -9.555,4.278 -9.555,9.556l-0,9.654c-0,5.277 4.278,9.555 9.555,9.555l9.655,0c5.277,0 9.555,-4.278 9.555,-9.555l-0,-9.654Z" style="fill:url(#_Linear2);"/></g></g><g><text x="215.092px" y="180.706px" style="font-family:'Montserrat-SemiBold', 'Montserrat';font-weight:600;font-size:14px;fill:#fff;">A<tspan x="225.438px 235.406px " y="180.706px 180.706px ">CC</tspan>ENTS</text><g><text x="253.531px" y="213.42px" style="font-family:'Montserrat-SemiBold', 'Montserrat';font-weight:600;font-size:14px;fill:#fff;">#0D9900</text><text x="253.531px" y="229.646px" style="font-family:'Montserrat-Regular', 'Montserrat';font-size:13px;fill:#808080;">F<tspan x="261.526px 269.378px 274.487px " y="229.646px 229.646px 229.646px ">ern</tspan></text><path d="M243.857,211.697c-0,-5.277 -4.278,-9.555 -9.556,-9.555l-9.654,-0c-5.277,-0 -9.555,4.278 -9.555,9.555l-0,9.654c-0,5.278 4.278,9.556 9.555,9.556l9.654,-0c5.278,-0 9.556,-4.278 9.556,-9.556l-0,-9.654Z" style="fill:#0d9900;"/></g><g><text x="253.531px" y="257.173px" style="font-family:'Montserrat-SemiBold', 'Montserrat';font-weight:600;font-size:14px;fill:#fff;">#02D60<tspan x="310.679px " y="257.173px ">2</tspan></text><text x="253.531px" y="273.399px" style="font-family:'Montserrat-Regular', 'Montserrat';font-size:13px;fill:#808080;">Lime</text><path d="M243.857,255.451c-0,-5.278 -4.278,-9.556 -9.556,-9.556l-9.654,0c-5.277,0 -9.555,4.278 -9.555,9.556l-0,9.654c-0,5.277 4.278,9.555 9.555,9.555l9.654,0c5.278,0 9.556,-4.278 9.556,-9.555l-0,-9.654Z" style="fill:#02d602;"/></g><g><text x="253.531px" y="300.927px" style="font-family:'Montserrat-SemiBold', 'Montserrat';font-weight:600;font-size:14px;fill:#fff;">#F<tspan x="272.193px " y="300.927px ">8</tspan>BA<tspan x="302.321px " y="300.927px ">0</tspan>0</text><text x="253.531px" y="317.153px" style="font-family:'Montserrat-Regular', 'Montserrat';font-size:13px;fill:#808080;">Amber</text><path d="M243.857,299.204c-0,-5.277 -4.278,-9.555 -9.556,-9.555l-9.654,-0c-5.277,-0 -9.555,4.278 -9.555,9.555l-0,9.655c-0,5.277 4.278,9.555 9.555,9.555l9.654,-0c5.278,-0 9.556,-4.278 9.556,-9.555l-0,-9.655Z" style="fill:#f8ba00;"/></g><g><text x="253.531px" y="344.681px" style="font-family:'Montserrat-SemiBold', 'Montserrat';font-weight:600;font-size:14px;fill:#fff;">#CD<tspan x="285.059px " y="344.681px ">3</tspan>D64</text><text x="253.531px" y="360.906px" style="font-family:'Montserrat-Regular', 'Montserrat';font-size:13px;fill:#808080;">Rose</text><path d="M243.857,342.958c-0,-5.277 -4.278,-9.556 -9.556,-9.556l-9.654,0c-5.277,0 -9.555,4.279 -9.555,9.556l-0,9.654c-0,5.277 4.278,9.555 9.555,9.555l9.654,0c5.278,0 9.556,-4.278 9.556,-9.555l-0,-9.654Z" style="fill:#cd3d64;"/></g><g><text x="253.531px" y="432.188px" style="font-family:'Montserrat-SemiBold', 'Montserrat';font-weight:600;font-size:14px;fill:#fff;">C2</text><text x="253.531px" y="448.414px" style="font-family:'Montserrat-Regular', 'Montserrat';font-size:13px;fill:#808080;">C<tspan x="262.579px " y="448.414px ">o</tspan>mmon gradient</text><path d="M243.857,430.465c-0,-5.277 -4.278,-9.555 -9.556,-9.555l-9.654,-0c-5.277,-0 -9.555,4.278 -9.555,9.555l-0,9.654c-0,5.278 4.278,9.556 9.555,9.556l9.654,-0c5.278,-0 9.556,-4.278 9.556,-9.556l-0,-9.654Z" style="fill:url(#_Linear3);"/></g><g><text x="253.531px" y="388.434px" style="font-family:'Montserrat-SemiBold', 'Montserrat';font-weight:600;font-size:14px;fill:#fff;">C3</text><text x="253.531px" y="404.66px" style="font-family:'Montserrat-Regular', 'Montserrat';font-size:13px;fill:#808080;">C<tspan x="262.579px " y="404.66px ">o</tspan>mmon gradient</text><path d="M243.857,386.711c-0,-5.277 -4.278,-9.555 -9.556,-9.555l-9.654,0c-5.277,0 -9.555,4.278 -9.555,9.555l-0,9.655c-0,5.277 4.278,9.555 9.555,9.555l9.654,0c5.278,0 9.556,-4.278 9.556,-9.555l-0,-9.655Z" style="fill:url(#_Linear4);"/></g></g><g><text x="445.126px" y="346.523px" style="font-family:'Montserrat-SemiBold', 'Montserrat';font-weight:600;font-size:14px;fill:#fff;">#F<tspan x="463.788px " y="346.523px ">5</tspan>D602</text><text x="406.687px" y="183.058px" style="font-family:'Montserrat-SemiBold', 'Montserrat';font-weight:600;font-size:14px;fill:#fff;">ORANGES</text><g><text x="445.126px" y="386.328px" style="font-family:'Montserrat-SemiBold', 'Montserrat';font-weight:600;font-size:14px;fill:#fff;">C<tspan x="455.024px " y="386.328px ">4</tspan></text><text x="445.126px" y="402.554px" style="font-family:'Montserrat-Regular', 'Montserrat';font-size:13px;fill:#808080;">C<tspan x="454.174px " y="402.554px ">o</tspan>mmon gradient</text><path d="M435.452,384.605c-0,-5.277 -4.278,-9.555 -9.556,-9.555l-9.654,-0c-5.277,-0 -9.555,4.278 -9.555,9.555l-0,9.654c-0,5.278 4.278,9.556 9.555,9.556l9.654,-0c5.278,-0 9.556,-4.278 9.556,-9.556l-0,-9.654Z" style="fill:url(#_Linear5);"/></g><g><text x="445.126px" y="258.965px" style="font-family:'Montserrat-SemiBold', 'Montserrat';font-weight:600;font-size:14px;fill:#fff;">#FF9900</text><text x="445.126px" y="275.19px" style="font-family:'Montserrat-Regular', 'Montserrat';font-size:13px;fill:#808080;">Sec<tspan x="468.175px " y="275.19px ">o</tspan>ndar<tspan x="507.045px " y="275.19px ">y</tspan></text><path d="M435.452,257.242c-0,-5.278 -4.278,-9.556 -9.556,-9.556l-9.654,0c-5.277,0 -9.555,4.278 -9.555,9.556l-0,9.654c-0,5.277 4.278,9.555 9.555,9.555l9.654,0c5.278,0 9.556,-4.278 9.556,-9.555l-0,-9.654Z" style="fill:#f90;"/></g><g><text x="445.126px" y="359.361px" style="font-family:'Montserrat-Regular', 'Montserrat';font-size:13px;fill:#808080;">Y<tspan x="452.601px " y="359.361px ">e</tspan>llo<tspan x="475.403px " y="359.361px ">w</tspan></text><path d="M435.452,341.413c-0,-5.278 -4.278,-9.556 -9.556,-9.556l-9.654,0c-5.277,0 -9.555,4.278 -9.555,9.556l-0,9.654c-0,5.277 4.278,9.555 9.555,9.555l9.654,0c5.278,0 9.556,-4.278 9.556,-9.555l-0,-9.654Z" style="fill:#f5d602;"/></g><g><text x="445.126px" y="215.772px" style="font-family:'Montserrat-SemiBold', 'Montserrat';font-weight:600;font-size:14px;fill:#fff;">#F38116</text><text x="445.126px" y="231.998px" style="font-family:'Montserrat-Regular', 'Montserrat';font-size:13px;fill:#808080;">Bit<tspan x="463.456px 470.658px " y="231.998px 231.998px ">co</tspan>in</text><path d="M435.452,214.049c-0,-5.277 -4.278,-9.555 -9.556,-9.555l-9.654,-0c-5.277,-0 -9.555,4.278 -9.555,9.555l-0,9.655c-0,5.277 4.278,9.555 9.555,9.555l9.654,-0c5.278,-0 9.556,-4.278 9.556,-9.555l-0,-9.655Z" style="fill:#f38116;"/></g><g><text x="445.126px" y="302.157px" style="font-family:'Montserrat-SemiBold', 'Montserrat';font-weight:600;font-size:14px;fill:#fff;">#FF9B66</text><text x="445.126px" y="318.383px" style="font-family:'Montserrat-Regular', 'Montserrat';font-size:13px;fill:#808080;">Dusk</text><path d="M435.452,300.434c-0,-5.277 -4.278,-9.555 -9.556,-9.555l-9.654,-0c-5.277,-0 -9.555,4.278 -9.555,9.555l-0,9.655c-0,5.277 4.278,9.555 9.555,9.555l9.654,-0c5.278,-0 9.556,-4.278 9.556,-9.555l-0,-9.655Z" style="fill:#ff9b66;"/></g></g><defs><linearGradient id="_Linear1" x1="0" y1="0" x2="1" y2="0" gradientUnits="userSpaceOnUse" gradientTransform="matrix(135.544,33.9462,-33.9462,135.544,407.819,18.9083)"><stop offset="0" style="stop-color:#ff337e;stop-opacity:1"/><stop offset="0.5" style="stop-color:#f8ba00;stop-opacity:1"/><stop offset="1" style="stop-color:#5404ff;stop-opacity:1"/></linearGradient><linearGradient id="_Linear2" x1="0" y1="0" x2="1" y2="0" gradientUnits="userSpaceOnUse" gradientTransform="matrix(28.5714,33.1936,-33.1936,28.5714,17.757,420.945)"><stop offset="0" style="stop-color:#ff337e;stop-opacity:1"/><stop offset="1" style="stop-color:#0062ff;stop-opacity:1"/></linearGradient><linearGradient id="_Linear3" x1="0" y1="0" x2="1" y2="0" gradientUnits="userSpaceOnUse" gradientTransform="matrix(28.5714,33.1936,-33.1936,28.5714,215.092,418.695)"><stop offset="0" style="stop-color:#f8ba00;stop-opacity:1"/><stop offset="1" style="stop-color:#0d9900;stop-opacity:1"/></linearGradient><linearGradient id="_Linear4" x1="0" y1="0" x2="1" y2="0" gradientUnits="userSpaceOnUse" gradientTransform="matrix(28.5714,33.1936,-33.1936,28.5714,215.092,374.942)"><stop offset="0" style="stop-color:#f8ba00;stop-opacity:1"/><stop offset="1" style="stop-color:#cd3d64;stop-opacity:1"/></linearGradient><linearGradient id="_Linear5" x1="0" y1="0" x2="1" y2="0" gradientUnits="userSpaceOnUse" gradientTransform="matrix(28.5714,33.1936,-33.1936,28.5714,406.687,372.835)"><stop offset="0" style="stop-color:#f38116;stop-opacity:1"/><stop offset="1" style="stop-color:#f5d602;stop-opacity:1"/></linearGradient></defs></svg>